M48
; DRILL file {KiCad 9.0.3} date 2026-01-14T20:01:33-0600
; FORMAT={-:-/ absolute / inch / decimal}
; #@! TF.CreationDate,2026-01-14T20:01:33-06:00
; #@! TF.GenerationSoftware,Kicad,Pcbnew,9.0.3
; #@! TF.FileFunction,Plated,1,2,PTH
FMAT,2
INCH
; #@! TA.AperFunction,Plated,PTH,ViaDrill
T1C0.0118
; #@! TA.AperFunction,Plated,PTH,ComponentDrill
T2C0.0472
; #@! TA.AperFunction,Plated,PTH,ComponentDrill
T3C0.0630
; #@! TA.AperFunction,Plated,PTH,ComponentDrill
T4C0.1260
%
G90
G05
T1
X5.0492Y-3.4291
X5.0738Y-4.6516
X5.0833Y-4.1346
X5.0872Y-4.3134
X5.1024Y-3.0866
X5.1026Y-4.6358
X5.1046Y-4.1752
X5.1181Y-3.4843
X5.1286Y-3.1207
X5.134Y-3.1594
X5.1811Y-3.3976
X5.1811Y-3.4331
X5.1837Y-4.1339
X5.1876Y-4.3126
X5.1969Y-4.1752
X5.2077Y-4.1102
X5.2146Y-3.0404
X5.2244Y-3.4331
X5.2283Y-4.0748
X5.2323Y-2.8978
X5.2323Y-2.936
X5.249Y-4.249
X5.2579Y-4.7894
X5.2593Y-4.8242
X5.2874Y-3.7953
X5.2884Y-3.9222
X5.2941Y-2.9197
X5.2984Y-2.824
X5.3071Y-3.7047
X5.3386Y-2.9197
X5.3425Y-3.4488
X5.3465Y-3.7047
X5.3543Y-3.1496
X5.3673Y-3.0197
X5.3697Y-2.8236
X5.3937Y-3.189
X5.3976Y-3.4488
X5.4173Y-4.2835
X5.4331Y-3.1496
X5.4409Y-3.7047
X5.4469Y-3.9587
X5.4724Y-3.189
X5.4724Y-3.6772
X5.498Y-4.2835
X5.5118Y-3.1496
X5.5217Y-3.4941
X5.5602Y-4.9752
X5.561Y-3.188
X5.5659Y-3.4931
X5.5906Y-3.1496
X5.5984Y-4.5945
X5.5994Y-3.7274
X5.5994Y-4.5276
X5.6299Y-4.6772
X5.6339Y-3.9528
X5.6339Y-3.9843
X5.6339Y-4.0276
X5.6339Y-4.0787
X5.6398Y-3.188
X5.6417Y-4.3622
X5.6457Y-4.1929
X5.6488Y-2.8846
X5.6496Y-3.8504
X5.6506Y-4.9301
X5.663Y-2.8394
X5.665Y-2.9264
X5.6693Y-3.1496
X5.6762Y-3.685
X5.6772Y-3.4449
X5.6894Y-2.8953
X5.6929Y-4.1929
X5.7016Y-2.8142
X5.7067Y-2.9465
X5.7165Y-3.4449
X5.724Y-2.8799
X5.7283Y-4.748
X5.7313Y-3.6929
X5.7417Y-2.913
X5.752Y-3.4449
X5.752Y-4.2441
X5.7569Y-3.7274
X5.7657Y-3.1035
X5.7701Y-2.8787
X5.7834Y-4.8566
X5.7874Y-4.8878
X5.7982Y-3.1035
X5.8016Y-2.8783
X5.802Y-3.0012
X5.8114Y-4.4953
X5.8268Y-4.0315
X5.827Y-2.9683
X5.8297Y-3.0984
X5.8376Y-3.9813
X5.839Y-2.878
X5.8453Y-2.9382
X5.8484Y-4.2431
X5.8488Y-4.4929
X5.8638Y-2.9079
X5.865Y-4.968
X5.8768Y-2.8776
X5.9291Y-3.2598
X5.9291Y-3.3031
X5.9291Y-3.3465
X5.9291Y-3.3898
X5.9291Y-3.4331
X5.9291Y-3.4724
X5.9341Y-3.7194
X5.9583Y-3.0654
X5.9656Y-3.7185
X5.9685Y-3.5433
X5.9724Y-3.8898
X5.9727Y-3.8184
X5.9803Y-4.0315
X5.9825Y-4.9678
X5.9843Y-4.6772
X5.9961Y-4.6063
X5.9972Y-3.7167
X6.0091Y-3.0591
X6.0102Y-2.8967
X6.0108Y-4.7012
X6.0276Y-4.1339
X6.0286Y-3.7182
X6.0315Y-3.9606
X6.0344Y-4.7311
X6.0433Y-3.6181
X6.0433Y-4.3346
X6.0433Y-4.3937
X6.0527Y-4.8752
X6.0601Y-3.7198
X6.0685Y-5.0008
X6.0689Y-4.2628
X6.0732Y-2.8967
X6.075Y-4.8529
X6.0827Y-3.6181
X6.0856Y-4.7825
X6.0916Y-3.7199
X6.103Y-4.6348
X6.1047Y-2.8967
X6.1132Y-2.9488
X6.1191Y-3.3386
X6.1309Y-3.1575
X6.1362Y-2.8967
X6.1378Y-3.4291
X6.1457Y-3.0935
X6.1677Y-2.8967
X6.1703Y-3.0699
X6.189Y-3.7323
X6.1992Y-2.8967
X6.1998Y-3.0917
X6.2028Y-4.2382
X6.2165Y-4.5787
X6.2234Y-3.7333
X6.2776Y-3.4449
X6.2795Y-3.4055
X6.2835Y-4.6457
X6.2852Y-3.2262
X6.2854Y-3.3707
X6.3583Y-3.1693
X6.3583Y-3.2894
X6.361Y-2.8234
X6.361Y-2.8593
X6.3898Y-3.378
X6.4016Y-3.2835
X6.4094Y-3.1654
X6.4256Y-2.8234
X6.4256Y-2.8593
X6.4488Y-3.4291
X6.4606Y-3.4843
X6.4622Y-3.5874
X6.4724Y-3.2283
X6.4754Y-3.6496
X6.4791Y-2.8234
X6.4791Y-2.8616
X6.5591Y-2.825
X6.5591Y-2.8632
X6.5591Y-3.5591
X6.6102Y-3.3012
X6.6358Y-3.6417
X6.6535Y-3.2992
X6.661Y-3.6228
X6.7008Y-3.1063
X6.748Y-3.1063
X6.7874Y-3.1299
X6.7992Y-3.4094
X6.7992Y-3.4646
X6.7992Y-3.5551
T2
X4.8914Y-4.865
X4.8914Y-4.9634
X4.8914Y-5.0618
X4.8914Y-5.1602
X4.893Y-4.1563
X4.893Y-4.2547
X4.893Y-4.3531
X4.893Y-4.4516
X4.893Y-4.55
X4.893Y-4.6484
X4.8937Y-2.9626
X4.8937Y-3.061
X4.8937Y-3.1594
X4.9898Y-4.865
X4.9898Y-4.9634
X4.9898Y-5.0618
X4.9898Y-5.1602
X4.9914Y-4.1563
X4.9914Y-4.2547
X4.9914Y-4.3531
X4.9914Y-4.4516
X4.9914Y-4.55
X4.9914Y-4.6484
X4.9921Y-2.9626
X4.9921Y-3.061
X4.9921Y-3.1594
T3
X5.1634Y-5.2815
X5.2898Y-4.4154
X5.2898Y-4.6457
X5.3543Y-5.1043
X5.4972Y-4.4193
X5.5758Y-5.1043
X6.4055Y-3.8189
X6.4055Y-4.0354
X6.4055Y-4.252
X6.4055Y-4.4882
X6.4055Y-4.7244
X6.4124Y-5.002
X6.6929Y-3.8189
X6.6929Y-4.0354
X6.6929Y-4.252
X6.6929Y-4.4882
X6.6929Y-5.002
T4
X5.4996Y-2.9248
X5.5Y-4.7543
X6.7102Y-2.9248
X6.7102Y-4.7543
M30
