%TF.GenerationSoftware,KiCad,Pcbnew,9.0.4*%
%TF.CreationDate,2026-01-14T01:36:39-06:00*%
%TF.ProjectId,Controls-PedalsDaughter,436f6e74-726f-46c7-932d-506564616c73,rev?*%
%TF.SameCoordinates,Original*%
%TF.FileFunction,Soldermask,Bot*%
%TF.FilePolarity,Negative*%
%FSLAX46Y46*%
G04 Gerber Fmt 4.6, Leading zero omitted, Abs format (unit mm)*
G04 Created by KiCad (PCBNEW 9.0.4) date 2026-01-14 01:36:39*
%MOMM*%
%LPD*%
G01*
G04 APERTURE LIST*
G04 Aperture macros list*
%AMRoundRect*
0 Rectangle with rounded corners*
0 $1 Rounding radius*
0 $2 $3 $4 $5 $6 $7 $8 $9 X,Y pos of 4 corners*
0 Add a 4 corners polygon primitive as box body*
4,1,4,$2,$3,$4,$5,$6,$7,$8,$9,$2,$3,0*
0 Add four circle primitives for the rounded corners*
1,1,$1+$1,$2,$3*
1,1,$1+$1,$4,$5*
1,1,$1+$1,$6,$7*
1,1,$1+$1,$8,$9*
0 Add four rect primitives between the rounded corners*
20,1,$1+$1,$2,$3,$4,$5,0*
20,1,$1+$1,$4,$5,$6,$7,0*
20,1,$1+$1,$6,$7,$8,$9,0*
20,1,$1+$1,$8,$9,$2,$3,0*%
%AMFreePoly0*
4,1,22,0.695671,0.830970,0.776777,0.776777,0.830970,0.695671,0.850000,0.600000,0.850000,-0.600000,0.830970,-0.695671,0.776777,-0.776777,0.695671,-0.830970,0.600000,-0.850000,-0.346447,-0.850000,-0.442118,-0.830970,-0.523224,-0.776777,-0.776777,-0.523224,-0.830970,-0.442118,-0.850000,-0.346447,-0.850000,0.600000,-0.830970,0.695671,-0.776777,0.776777,-0.695671,0.830970,-0.600000,0.850000,
0.600000,0.850000,0.695671,0.830970,0.695671,0.830970,$1*%
G04 Aperture macros list end*
%ADD10C,2.800000*%
%ADD11C,1.300000*%
%ADD12C,1.700000*%
%ADD13FreePoly0,180.000000*%
%ADD14C,3.600000*%
%ADD15C,6.400000*%
%ADD16RoundRect,0.250000X0.600000X0.600000X-0.600000X0.600000X-0.600000X-0.600000X0.600000X-0.600000X0*%
%ADD17RoundRect,0.237500X0.237500X-0.300000X0.237500X0.300000X-0.237500X0.300000X-0.237500X-0.300000X0*%
%ADD18R,1.000000X1.000000*%
%ADD19RoundRect,0.237500X-0.300000X-0.237500X0.300000X-0.237500X0.300000X0.237500X-0.300000X0.237500X0*%
%ADD20RoundRect,0.150000X-0.825000X-0.150000X0.825000X-0.150000X0.825000X0.150000X-0.825000X0.150000X0*%
%ADD21RoundRect,0.150000X0.825000X0.150000X-0.825000X0.150000X-0.825000X-0.150000X0.825000X-0.150000X0*%
%ADD22RoundRect,0.237500X-0.250000X-0.237500X0.250000X-0.237500X0.250000X0.237500X-0.250000X0.237500X0*%
%ADD23RoundRect,0.237500X0.250000X0.237500X-0.250000X0.237500X-0.250000X-0.237500X0.250000X-0.237500X0*%
%ADD24RoundRect,0.237500X-0.237500X0.250000X-0.237500X-0.250000X0.237500X-0.250000X0.237500X0.250000X0*%
%ADD25RoundRect,0.237500X0.300000X0.237500X-0.300000X0.237500X-0.300000X-0.237500X0.300000X-0.237500X0*%
%ADD26R,1.020000X0.950000*%
%ADD27RoundRect,0.237500X-0.237500X0.300000X-0.237500X-0.300000X0.237500X-0.300000X0.237500X0.300000X0*%
%ADD28R,0.550000X0.800000*%
G04 APERTURE END LIST*
D10*
%TO.C,Raw6*%
X131150000Y-134150000D03*
%TD*%
D11*
%TO.C,J3*%
X128140000Y-79000000D03*
D12*
X126800000Y-75250000D03*
X126800000Y-77750000D03*
D13*
X126800000Y-80250000D03*
D12*
X124300000Y-75250000D03*
X124300000Y-77750000D03*
X124300000Y-80250000D03*
%TD*%
D14*
%TO.C,PSOM1*%
X139690000Y-74290000D03*
D15*
X139690000Y-74290000D03*
D14*
X170440000Y-74290000D03*
D15*
X170440000Y-74290000D03*
D14*
X170440000Y-120760000D03*
D15*
X170440000Y-120760000D03*
D14*
X139700000Y-120760000D03*
D15*
X139700000Y-120760000D03*
%TD*%
D11*
%TO.C,J5*%
X128081000Y-127320000D03*
D16*
X126741000Y-131070000D03*
D12*
X126741000Y-128570000D03*
X126741000Y-126070000D03*
X126741000Y-123570000D03*
X124241000Y-131070000D03*
X124241000Y-128570000D03*
X124241000Y-126070000D03*
X124241000Y-123570000D03*
%TD*%
D11*
%TO.C,J4*%
X128121000Y-111820000D03*
D16*
X126781000Y-118070000D03*
D12*
X126781000Y-115570000D03*
X126781000Y-113070000D03*
X126781000Y-110570000D03*
X126781000Y-108070000D03*
X126781000Y-105570000D03*
X124281000Y-118070000D03*
X124281000Y-115570000D03*
X124281000Y-113070000D03*
X124281000Y-110570000D03*
X124281000Y-108070000D03*
X124281000Y-105570000D03*
%TD*%
D17*
%TO.C,C8*%
X141690000Y-87260000D03*
X141690000Y-85535000D03*
%TD*%
D18*
%TO.C,Adj5V2*%
X149035000Y-89425000D03*
%TD*%
D10*
%TO.C,TP9*%
X141625000Y-129650000D03*
%TD*%
D19*
%TO.C,C3*%
X164462500Y-80500000D03*
X166187500Y-80500000D03*
%TD*%
D20*
%TO.C,U2*%
X144919642Y-103655000D03*
X144919642Y-102385000D03*
X144919642Y-101115000D03*
X144919642Y-99845000D03*
X149869642Y-99845000D03*
X149869642Y-101115000D03*
X149869642Y-102385000D03*
X149869642Y-103655000D03*
%TD*%
D10*
%TO.C,TP5*%
X162700000Y-108000000D03*
%TD*%
D21*
%TO.C,U3*%
X170700000Y-83710000D03*
X170700000Y-84980000D03*
X170700000Y-86250000D03*
X170700000Y-87520000D03*
X165750000Y-87520000D03*
X165750000Y-86250000D03*
X165750000Y-84980000D03*
X165750000Y-83710000D03*
%TD*%
D17*
%TO.C,C15*%
X148590000Y-87350000D03*
X148590000Y-85625000D03*
%TD*%
D22*
%TO.C,R28*%
X144675000Y-98125000D03*
X146500000Y-98125000D03*
%TD*%
%TO.C,R30*%
X146137500Y-105275000D03*
X147962500Y-105275000D03*
%TD*%
D23*
%TO.C,R26*%
X138175000Y-99350000D03*
X136350000Y-99350000D03*
%TD*%
D24*
%TO.C,R13*%
X146355000Y-90872500D03*
X146355000Y-92697500D03*
%TD*%
%TO.C,R19*%
X122500000Y-74825000D03*
X122500000Y-76650000D03*
%TD*%
D23*
%TO.C,R20*%
X130987500Y-76900000D03*
X129162500Y-76900000D03*
%TD*%
D22*
%TO.C,R32*%
X145550000Y-119525000D03*
X147375000Y-119525000D03*
%TD*%
D25*
%TO.C,C11*%
X141575000Y-97775000D03*
X139850000Y-97775000D03*
%TD*%
D10*
%TO.C,TP12*%
X136000000Y-129650000D03*
%TD*%
D26*
%TO.C,F2*%
X129150000Y-100700000D03*
X129150000Y-102270000D03*
%TD*%
D17*
%TO.C,C5*%
X133160000Y-85885000D03*
X133160000Y-84160000D03*
%TD*%
D27*
%TO.C,C6*%
X134325000Y-101125000D03*
X134325000Y-102850000D03*
%TD*%
D22*
%TO.C,R34*%
X145462500Y-121800000D03*
X147287500Y-121800000D03*
%TD*%
D10*
%TO.C,Brake_Fl_Sn2*%
X162700000Y-102500000D03*
%TD*%
D22*
%TO.C,R10*%
X135465000Y-83930000D03*
X137290000Y-83930000D03*
%TD*%
D19*
%TO.C,C12*%
X136400000Y-97775000D03*
X138125000Y-97775000D03*
%TD*%
D22*
%TO.C,R11*%
X169112500Y-82100000D03*
X170937500Y-82100000D03*
%TD*%
D23*
%TO.C,R4*%
X170900000Y-89125000D03*
X169075000Y-89125000D03*
%TD*%
D22*
%TO.C,R8*%
X145145000Y-83905000D03*
X146970000Y-83905000D03*
%TD*%
%TO.C,R1*%
X152812500Y-89100000D03*
X154637500Y-89100000D03*
%TD*%
%TO.C,R5*%
X165650000Y-89125000D03*
X167475000Y-89125000D03*
%TD*%
D19*
%TO.C,C16*%
X142932500Y-92480000D03*
X144657500Y-92480000D03*
%TD*%
D10*
%TO.C,TP8*%
X162700000Y-114000000D03*
%TD*%
D18*
%TO.C,Adj5V1*%
X140280000Y-90275000D03*
%TD*%
D21*
%TO.C,U1*%
X150500000Y-113970000D03*
X150500000Y-115240000D03*
X150500000Y-116510000D03*
X150500000Y-117780000D03*
X145550000Y-117780000D03*
X145550000Y-116510000D03*
X145550000Y-115240000D03*
X145550000Y-113970000D03*
%TD*%
D10*
%TO.C,TP4*%
X170000000Y-102500000D03*
%TD*%
D19*
%TO.C,C9*%
X161037500Y-81825000D03*
X162762500Y-81825000D03*
%TD*%
D24*
%TO.C,R27*%
X149487500Y-105325000D03*
X149487500Y-107150000D03*
%TD*%
D23*
%TO.C,R23*%
X141350000Y-106325000D03*
X139525000Y-106325000D03*
%TD*%
D22*
%TO.C,R16*%
X152812500Y-90600000D03*
X154637500Y-90600000D03*
%TD*%
%TO.C,R35*%
X148950000Y-112425000D03*
X150775000Y-112425000D03*
%TD*%
D23*
%TO.C,R36*%
X147425000Y-112425000D03*
X145600000Y-112425000D03*
%TD*%
D27*
%TO.C,C17*%
X143512500Y-115050000D03*
X143512500Y-116775000D03*
%TD*%
D24*
%TO.C,R15*%
X157950000Y-117987500D03*
X157950000Y-119812500D03*
%TD*%
%TO.C,R14*%
X154575000Y-118912500D03*
X154575000Y-120737500D03*
%TD*%
D18*
%TO.C,Vin1*%
X134330000Y-81845000D03*
%TD*%
D10*
%TO.C,TP10*%
X139630000Y-112250000D03*
%TD*%
D19*
%TO.C,C10*%
X148375000Y-98125000D03*
X150100000Y-98125000D03*
%TD*%
D22*
%TO.C,R37*%
X156225000Y-89032500D03*
X158050000Y-89032500D03*
%TD*%
%TO.C,R49*%
X147000000Y-125300000D03*
X148825000Y-125300000D03*
%TD*%
D23*
%TO.C,R21*%
X141350000Y-107875000D03*
X139525000Y-107875000D03*
%TD*%
%TO.C,R44*%
X150762500Y-109275000D03*
X148937500Y-109275000D03*
%TD*%
D22*
%TO.C,R9*%
X142885000Y-90895000D03*
X144710000Y-90895000D03*
%TD*%
D10*
%TO.C,TP6*%
X170000000Y-127050000D03*
%TD*%
D27*
%TO.C,C1*%
X163725000Y-83962500D03*
X163725000Y-85687500D03*
%TD*%
D22*
%TO.C,R43*%
X145550000Y-109275000D03*
X147375000Y-109275000D03*
%TD*%
D18*
%TO.C,5V_Out1*%
X130815000Y-92465000D03*
%TD*%
D10*
%TO.C,TP7*%
X162700000Y-120000000D03*
%TD*%
%TO.C,TP14*%
X134360000Y-118000000D03*
%TD*%
D23*
%TO.C,R12*%
X167475000Y-82075000D03*
X165650000Y-82075000D03*
%TD*%
D22*
%TO.C,R40*%
X146125000Y-106825000D03*
X147950000Y-106825000D03*
%TD*%
%TO.C,R22*%
X136137500Y-107875000D03*
X137962500Y-107875000D03*
%TD*%
%TO.C,R24*%
X136112500Y-106325000D03*
X137937500Y-106325000D03*
%TD*%
D20*
%TO.C,U4*%
X152732142Y-87455000D03*
X152732142Y-86185000D03*
X152732142Y-84915000D03*
X152732142Y-83645000D03*
X157682142Y-83645000D03*
X157682142Y-84915000D03*
X157682142Y-86185000D03*
X157682142Y-87455000D03*
%TD*%
D24*
%TO.C,R41*%
X150950000Y-122812500D03*
X150950000Y-124637500D03*
%TD*%
D10*
%TO.C,Brake_Fl_Sn1*%
X170000000Y-97000000D03*
%TD*%
%TO.C,TP2*%
X170000000Y-114000000D03*
%TD*%
D24*
%TO.C,R42*%
X145300000Y-123362500D03*
X145300000Y-125187500D03*
%TD*%
D23*
%TO.C,R18*%
X131242224Y-80250000D03*
X129417224Y-80250000D03*
%TD*%
D18*
%TO.C,En5V1*%
X139065000Y-83645000D03*
%TD*%
D28*
%TO.C,IC2*%
X144220000Y-86215000D03*
X145170000Y-86215000D03*
X146120000Y-86215000D03*
X146120000Y-88615000D03*
X144220000Y-88615000D03*
%TD*%
D23*
%TO.C,R38*%
X156412500Y-82050000D03*
X154587500Y-82050000D03*
%TD*%
D24*
%TO.C,R7*%
X137160000Y-90885000D03*
X137160000Y-92710000D03*
%TD*%
D19*
%TO.C,C7*%
X133710000Y-92385000D03*
X135435000Y-92385000D03*
%TD*%
%TO.C,C19*%
X144775000Y-110875000D03*
X146500000Y-110875000D03*
%TD*%
D22*
%TO.C,R25*%
X139812500Y-99325000D03*
X141637500Y-99325000D03*
%TD*%
D21*
%TO.C,U5*%
X141350000Y-100935000D03*
X141350000Y-102205000D03*
X141350000Y-103475000D03*
X141350000Y-104745000D03*
X136400000Y-104745000D03*
X136400000Y-103475000D03*
X136400000Y-102205000D03*
X136400000Y-100935000D03*
%TD*%
D10*
%TO.C,TP1*%
X162875000Y-127050000D03*
%TD*%
D22*
%TO.C,R3*%
X165687500Y-91450000D03*
X167512500Y-91450000D03*
%TD*%
D18*
%TO.C,5V_Out2*%
X130730000Y-107680000D03*
%TD*%
D23*
%TO.C,R33*%
X150737500Y-121125000D03*
X148912500Y-121125000D03*
%TD*%
D26*
%TO.C,F1*%
X130750000Y-118915000D03*
X130750000Y-120485000D03*
%TD*%
D18*
%TO.C,En5V2*%
X149220000Y-83490000D03*
%TD*%
D22*
%TO.C,R6*%
X133680000Y-90840000D03*
X135505000Y-90840000D03*
%TD*%
D25*
%TO.C,C18*%
X151512500Y-110875000D03*
X149787500Y-110875000D03*
%TD*%
D23*
%TO.C,R2*%
X170900000Y-90675000D03*
X169075000Y-90675000D03*
%TD*%
D28*
%TO.C,IC1*%
X135615000Y-86250000D03*
X136565000Y-86250000D03*
X137515000Y-86250000D03*
X137515000Y-88650000D03*
X135615000Y-88650000D03*
%TD*%
D17*
%TO.C,C4*%
X139930000Y-87320000D03*
X139930000Y-85595000D03*
%TD*%
D25*
%TO.C,C2*%
X170875000Y-80500000D03*
X169150000Y-80500000D03*
%TD*%
D22*
%TO.C,R47*%
X128220000Y-87160000D03*
X130045000Y-87160000D03*
%TD*%
D10*
%TO.C,TP11*%
X134360000Y-112150000D03*
%TD*%
D24*
%TO.C,R17*%
X122450000Y-79147500D03*
X122450000Y-80972500D03*
%TD*%
D23*
%TO.C,R31*%
X150737500Y-119525000D03*
X148912500Y-119525000D03*
%TD*%
D10*
%TO.C,TP3*%
X170000000Y-108000000D03*
%TD*%
%TO.C,TP13*%
X162700000Y-97000000D03*
%TD*%
M02*
