M48
; DRILL file {KiCad 9.0.4} date 2026-01-14T01:36:42-0600
; FORMAT={-:-/ absolute / metric / decimal}
; #@! TF.CreationDate,2026-01-14T01:36:42-06:00
; #@! TF.GenerationSoftware,Kicad,Pcbnew,9.0.4
; #@! TF.FileFunction,Plated,1,2,PTH
FMAT,2
METRIC
; #@! TA.AperFunction,Plated,PTH,ViaDrill
T1C0.300
; #@! TA.AperFunction,Plated,PTH,ComponentDrill
T2C1.200
; #@! TA.AperFunction,Plated,PTH,ComponentDrill
T3C1.600
; #@! TA.AperFunction,Plated,PTH,ComponentDrill
T4C3.200
%
G90
G05
T1
X122.756Y-103.96
X126.281Y-120.07
X126.356Y-102.65
X127.406Y-101.4
X128.25Y-87.1
X128.875Y-118.151
X129.116Y-105.02
X129.216Y-109.56
X129.606Y-117.75
X129.656Y-106.05
X130.405Y-80.25
X131.182Y-78.35
X131.666Y-105.0
X131.766Y-109.54
X131.775Y-87.15
X131.826Y-102.63
X132.0Y-106.05
X132.266Y-101.43
X132.275Y-104.4
X132.45Y-77.225
X132.9Y-73.605
X132.9Y-74.575
X133.3Y-104.05
X133.325Y-107.925
X133.55Y-121.65
X133.586Y-122.535
X134.325Y-99.625
X134.47Y-74.16
X134.58Y-71.73
X135.41Y-93.55
X135.6Y-74.16
X136.0Y-80.0
X136.33Y-76.7
X136.39Y-71.72
X136.625Y-87.435
X137.0Y-81.0
X137.6Y-108.8
X138.0Y-80.0
X138.12Y-93.57
X138.35Y-100.55
X139.0Y-81.0
X139.65Y-108.8
X140.0Y-80.0
X140.25Y-88.75
X141.23Y-126.37
X141.25Y-80.975
X141.375Y-88.725
X141.4Y-109.925
X142.0Y-80.0
X142.225Y-94.675
X142.225Y-115.0
X143.25Y-80.975
X143.25Y-109.925
X143.48Y-73.27
X143.525Y-125.225
X143.84Y-72.12
X143.89Y-74.33
X144.0Y-80.0
X144.175Y-93.6
X144.51Y-73.54
X144.82Y-71.48
X144.95Y-74.84
X145.205Y-87.75
X145.39Y-73.15
X145.575Y-93.8
X145.84Y-73.99
X146.225Y-94.675
X146.3Y-80.501
X146.45Y-78.83
X146.56Y-73.12
X146.898Y-123.357
X147.0Y-124.15
X147.275Y-78.83
X147.36Y-73.11
X147.37Y-76.23
X147.61Y-114.18
X148.006Y-75.396
X148.075Y-78.7
X148.275Y-101.125
X148.31Y-73.1
X148.47Y-74.63
X148.55Y-107.775
X148.56Y-114.12
X148.94Y-73.86
X148.97Y-126.188
X149.27Y-73.09
X149.625Y-95.075
X150.316Y-80.492
X150.625Y-88.325
X150.725Y-94.472
X151.341Y-77.861
X151.525Y-94.45
X151.6Y-90.0
X151.955Y-126.182
X152.328Y-94.405
X152.63Y-77.7
X152.66Y-73.575
X152.675Y-119.41
X152.8Y-106.8
X153.1Y-105.0
X153.127Y-94.442
X153.2Y-100.6
X153.225Y-99.1
X153.25Y-102.45
X153.275Y-120.17
X153.375Y-112.375
X153.739Y-123.829
X153.926Y-94.482
X154.14Y-127.02
X154.15Y-108.275
X154.26Y-73.575
X154.305Y-123.264
X154.575Y-121.475
X154.726Y-94.486
X155.017Y-117.725
X155.06Y-73.575
X155.275Y-74.9
X155.425Y-84.8
X155.725Y-80.201
X155.86Y-73.575
X156.1Y-78.575
X156.66Y-73.575
X156.725Y-77.975
X157.2Y-94.8
X157.46Y-73.575
X157.475Y-78.53
X157.55Y-107.65
X157.95Y-118.675
X158.075Y-94.825
X158.675Y-99.1
X158.7Y-106.8
X158.72Y-96.49
X158.75Y-103.675
X158.85Y-112.375
X158.925Y-80.65
X159.275Y-90.275
X159.275Y-92.475
X159.45Y-87.5
X159.645Y-81.945
X159.65Y-85.615
X160.19Y-78.3
X160.8Y-80.7
X161.5Y-83.55
X161.57Y-71.715
X161.57Y-72.625
X162.76Y-90.275
X162.76Y-92.525
X163.1Y-78.3
X163.21Y-71.715
X163.21Y-72.625
X164.14Y-91.12
X164.475Y-92.7
X164.57Y-71.715
X164.57Y-72.685
X166.6Y-71.755
X166.6Y-72.725
X167.9Y-83.85
X168.55Y-92.5
X169.0Y-83.8
X169.19Y-92.02
T2
X124.241Y-123.57
X124.241Y-126.07
X124.241Y-128.57
X124.241Y-131.07
X124.281Y-105.57
X124.281Y-108.07
X124.281Y-110.57
X124.281Y-113.07
X124.281Y-115.57
X124.281Y-118.07
X124.3Y-75.25
X124.3Y-77.75
X124.3Y-80.25
X126.741Y-123.57
X126.741Y-126.07
X126.741Y-128.57
X126.741Y-131.07
X126.781Y-105.57
X126.781Y-108.07
X126.781Y-110.57
X126.781Y-113.07
X126.781Y-115.57
X126.781Y-118.07
X126.8Y-75.25
X126.8Y-77.75
X126.8Y-80.25
T3
X131.15Y-134.15
X134.36Y-112.15
X134.36Y-118.0
X136.0Y-129.65
X139.63Y-112.25
X141.625Y-129.65
X162.7Y-97.0
X162.7Y-102.5
X162.7Y-108.0
X162.7Y-114.0
X162.7Y-120.0
X162.875Y-127.05
X170.0Y-97.0
X170.0Y-102.5
X170.0Y-108.0
X170.0Y-114.0
X170.0Y-127.05
T4
X139.69Y-74.29
X139.7Y-120.76
X170.44Y-74.29
X170.44Y-120.76
M30
